HIERARCHY
ROOT hip
{
  OFFSET 5.70873 43.8894 -1.52928
  CHANNELS 6 Xposition Yposition Zposition Zrotation Xrotation Yrotation
  JOINT abdomen
  {
    OFFSET 0 5.99393 0.287273
    CHANNELS 6 Xposition Yposition Zposition Zrotation Xrotation Yrotation
    JOINT chest
    {
      OFFSET 0 6.65865 -0.856112
      CHANNELS 6 Xposition Yposition Zposition Zrotation Xrotation Yrotation
      JOINT neck
      {
        OFFSET 0 8.65624 -1.42685
        CHANNELS 6 Xposition Yposition Zposition Zrotation Xrotation Yrotation
        JOINT head
        {
          OFFSET 0 3.80999 -0.190247
          CHANNELS 6 Xposition Yposition Zposition Zrotation Xrotation Yrotation
          End Site
          {
            OFFSET 0 0 0
          }
        }
      }
      JOINT rCollar
      {
        OFFSET -1.4963 7.5744 -1.52136
        CHANNELS 6 Xposition Yposition Zposition Zrotation Xrotation Yrotation
        JOINT rShldr
        {
          OFFSET -5.47506 -0.905672 0.485692
          CHANNELS 6 Xposition Yposition Zposition Zrotation Xrotation Yrotation
          JOINT rForeArm
          {
            OFFSET -11.3069 -0.201091 0.618544
            CHANNELS 6 Xposition Yposition Zposition Zrotation Xrotation Yrotation
            JOINT rHand
            {
              OFFSET -9.61414 -0.254739 3.48553
              CHANNELS 6 Xposition Yposition Zposition Zrotation Xrotation Yrotation
              JOINT rThumb1
              {
                OFFSET 0.176263 -0.07068 1.26622
                CHANNELS 6 Xposition Yposition Zposition Zrotation Xrotation Yrotation
                JOINT rThumb2
                {
                  OFFSET -1.04683 -0.546484 1.82182
                  CHANNELS 6 Xposition Yposition Zposition Zrotation Xrotation Yrotation
                  JOINT rThumb3
                  {
                    OFFSET -0.993472 -0.621916 0.655506
                    CHANNELS 6 Xposition Yposition Zposition Zrotation Xrotation Yrotation
                    End Site
                    {
                      OFFSET -0.996134 -0.66263 0.644615
                    }
                  }
                }
              }
              JOINT rIndex1
              {
                OFFSET -2.64253 0.566363 2.4162
                CHANNELS 6 Xposition Yposition Zposition Zrotation Xrotation Yrotation
                JOINT rIndex2
                {
                  OFFSET -1.39394 -0.635138 0.899356
                  CHANNELS 6 Xposition Yposition Zposition Zrotation Xrotation Yrotation
                  JOINT rIndex3
                  {
                    OFFSET -0.622395 -0.856016 0.402182
                    CHANNELS 6 Xposition Yposition Zposition Zrotation Xrotation Yrotation
                    End Site
                    {
                      OFFSET -0.472476 -0.801802 0.34216
                    }
                  }
                }
              }
              JOINT rMid1
              {
                OFFSET -3.20814 0.514427 1.52547
                CHANNELS 6 Xposition Yposition Zposition Zrotation Xrotation Yrotation
                JOINT rMid2
                {
                  OFFSET -1.56545 -0.497974 0.68919
                  CHANNELS 6 Xposition Yposition Zposition Zrotation Xrotation Yrotation
                  JOINT rMid3
                  {
                    OFFSET -0.679943 -1.17582 0.444246
                    CHANNELS 6 Xposition Yposition Zposition Zrotation Xrotation Yrotation
                    End Site
                    {
                      OFFSET -0.343874 -0.941341 0.267611
                    }
                  }
                }
              }
              JOINT rRing1
              {
                OFFSET -3.47877 0.200518 0.597719
                CHANNELS 6 Xposition Yposition Zposition Zrotation Xrotation Yrotation
                JOINT rRing2
                {
                  OFFSET -1.28208 -0.53155 0.44672
                  CHANNELS 6 Xposition Yposition Zposition Zrotation Xrotation Yrotation
                  JOINT rRing3
                  {
                    OFFSET -0.710288 -0.970167 0.4032
                    CHANNELS 6 Xposition Yposition Zposition Zrotation Xrotation Yrotation
                    End Site
                    {
                      OFFSET -0.403228 -0.950952 0.378354
                    }
                  }
                }
              }
              JOINT rPinky1
              {
                OFFSET -3.42483 -0.278904 -0.240415
                CHANNELS 6 Xposition Yposition Zposition Zrotation Xrotation Yrotation
                JOINT rPinky2
                {
                  OFFSET -1.05787 -0.635999 0.156459
                  CHANNELS 6 Xposition Yposition Zposition Zrotation Xrotation Yrotation
                  JOINT rPinky3
                  {
                    OFFSET -0.42815 -0.754232 0.287187
                    CHANNELS 6 Xposition Yposition Zposition Zrotation Xrotation Yrotation
                    End Site
                    {
                      OFFSET -0.235717 -0.725605 0.279416
                    }
                  }
                }
              }
            }
          }
        }
      }
      JOINT lCollar
      {
        OFFSET 1.4963 7.5744 -1.52136
        CHANNELS 6 Xposition Yposition Zposition Zrotation Xrotation Yrotation
        JOINT lShldr
        {
          OFFSET 5.47506 -0.905672 0.485692
          CHANNELS 6 Xposition Yposition Zposition Zrotation Xrotation Yrotation
          JOINT lForeArm
          {
            OFFSET 11.3069 -0.201091 0.618544
            CHANNELS 6 Xposition Yposition Zposition Zrotation Xrotation Yrotation
            JOINT lHand
            {
              OFFSET 9.61414 -0.254739 3.48553
              CHANNELS 6 Xposition Yposition Zposition Zrotation Xrotation Yrotation
              JOINT lThumb1
              {
                OFFSET -0.176263 -0.07068 1.26622
                CHANNELS 6 Xposition Yposition Zposition Zrotation Xrotation Yrotation
                JOINT lThumb2
                {
                  OFFSET 1.04683 -0.546484 1.82182
                  CHANNELS 6 Xposition Yposition Zposition Zrotation Xrotation Yrotation
                  JOINT lThumb3
                  {
                    OFFSET 0.993472 -0.621916 0.655506
                    CHANNELS 6 Xposition Yposition Zposition Zrotation Xrotation Yrotation
                    End Site
                    {
                      OFFSET 0.996134 -0.66263 0.644615
                    }
                  }
                }
              }
              JOINT lIndex1
              {
                OFFSET 2.64253 0.566363 2.4162
                CHANNELS 6 Xposition Yposition Zposition Zrotation Xrotation Yrotation
                JOINT lIndex2
                {
                  OFFSET 1.39394 -0.635138 0.899356
                  CHANNELS 6 Xposition Yposition Zposition Zrotation Xrotation Yrotation
                  JOINT lIndex3
                  {
                    OFFSET 0.622395 -0.856016 0.402182
                    CHANNELS 6 Xposition Yposition Zposition Zrotation Xrotation Yrotation
                    End Site
                    {
                      OFFSET 0.472476 -0.801802 0.34216
                    }
                  }
                }
              }
              JOINT lMid1
              {
                OFFSET 3.20814 0.514427 1.52547
                CHANNELS 6 Xposition Yposition Zposition Zrotation Xrotation Yrotation
                JOINT lMid2
                {
                  OFFSET 1.56545 -0.497974 0.68919
                  CHANNELS 6 Xposition Yposition Zposition Zrotation Xrotation Yrotation
                  JOINT lMid3
                  {
                    OFFSET 0.679943 -1.17582 0.444246
                    CHANNELS 6 Xposition Yposition Zposition Zrotation Xrotation Yrotation
                    End Site
                    {
                      OFFSET 0.343874 -0.941341 0.267611
                    }
                  }
                }
              }
              JOINT lRing1
              {
                OFFSET 3.47877 0.200518 0.597719
                CHANNELS 6 Xposition Yposition Zposition Zrotation Xrotation Yrotation
                JOINT lRing2
                {
                  OFFSET 1.28208 -0.53155 0.44672
                  CHANNELS 6 Xposition Yposition Zposition Zrotation Xrotation Yrotation
                  JOINT lRing3
                  {
                    OFFSET 0.710288 -0.970167 0.4032
                    CHANNELS 6 Xposition Yposition Zposition Zrotation Xrotation Yrotation
                    End Site
                    {
                      OFFSET 0.403228 -0.950952 0.378354
                    }
                  }
                }
              }
              JOINT lPinky1
              {
                OFFSET 3.42483 -0.278904 -0.240415
                CHANNELS 6 Xposition Yposition Zposition Zrotation Xrotation Yrotation
                JOINT lPinky2
                {
                  OFFSET 1.05787 -0.635999 0.156459
                  CHANNELS 6 Xposition Yposition Zposition Zrotation Xrotation Yrotation
                  JOINT lPinky3
                  {
                    OFFSET 0.42815 -0.754232 0.287187
                    CHANNELS 6 Xposition Yposition Zposition Zrotation Xrotation Yrotation
                    End Site
                    {
                      OFFSET 0.235717 -0.725605 0.279416
                    }
                  }
                }
              }
            }
          }
        }
      }
    }
  }
  JOINT rThigh
  {
    OFFSET -4.17848 -1.02486 0.046356
    CHANNELS 6 Xposition Yposition Zposition Zrotation Xrotation Yrotation
    JOINT rShin
    {
      OFFSET 1.27155 -17.465 -0.237699
      CHANNELS 6 Xposition Yposition Zposition Zrotation Xrotation Yrotation
      JOINT rFoot
      {
        OFFSET 0.529163 -17.3815 -1.19582
        CHANNELS 6 Xposition Yposition Zposition Zrotation Xrotation Yrotation
        JOINT rToe
        {
          OFFSET -0.711591 -4.4863 4.0596
          CHANNELS 6 Xposition Yposition Zposition Zrotation Xrotation Yrotation
          End Site
          {
            OFFSET -0.869915 -1.10655 1.99006
          }
        }
      }
    }
  }
  JOINT lThigh
  {
    OFFSET 4.17848 -1.02486 0.046356
    CHANNELS 6 Xposition Yposition Zposition Zrotation Xrotation Yrotation
    JOINT lShin
    {
      OFFSET -1.27155 -17.465 -0.237699
      CHANNELS 6 Xposition Yposition Zposition Zrotation Xrotation Yrotation
      JOINT lFoot
      {
        OFFSET -0.529163 -17.3815 -1.19582
        CHANNELS 6 Xposition Yposition Zposition Zrotation Xrotation Yrotation
        JOINT lToe
        {
          OFFSET 0.711591 -4.4863 4.0596
          CHANNELS 6 Xposition Yposition Zposition Zrotation Xrotation Yrotation
          End Site
          {
            OFFSET 0.869915 -1.10655 1.99006
          }
        }
      }
    }
  }
}
MOTION
Frames:	4
Frame Time:	0.0333333
4.87625 14.4192 -18.3523 12.8006 10.1769 -55.1353 0 5.99393 0.287273 -0.214316 -4.64253 2.54194 0 6.65865 -0.856112 -0.222197 -9.29004 5.0916 0 8.65624 -1.42685 0.17385 0.714287 -4.39531 0 3.80999 -0.190247 6.57727 -0.317214 -2.25097 -1.4963 7.5744 -1.52136 -6.93188 -1.06526 30.815 -5.47506 -0.905672 0.485692 37.6201 -28.4001 58.5525 -11.3069 -0.201091 0.618544 18.016 -1.82998 37.335 -9.61414 -0.254739 3.48553 -40.4819 -45.9551 -35.4761 0.176263 -0.07068 1.26622 -27.0717 34.1213 37.4742 -1.04683 -0.546484 1.82182 3.31224 -2.9656 9.2449 -0.993472 -0.621916 0.655506 -4.32709 5.93877 -14.9479 -2.64253 0.566363 2.4162 13.4016 5.92006 -12.0724 -1.39394 -0.635138 0.899356 44.7396 8.15934 -10.1718 -0.622395 -0.856016 0.402182 45.8625 8.24907 -10.4911 -3.20814 0.514427 1.52547 7.10269 0.886143 -2.2413 -1.56545 -0.497974 0.68919 52.741 10.533 -13.0892 -0.679943 -1.17582 0.444246 15.4526 4.36311 -2.78813 -3.47877 0.200518 0.597719 14.3237 -1.13295 -5.51462 -1.28208 -0.53155 0.44672 21.365 6.4123 -5.10256 -0.710288 -0.970167 0.4032 22.9813 6.80615 -5.57298 -3.42483 -0.278904 -0.240415 -6.90715 -7.98178 -6.36677 -1.05787 -0.635999 0.156459 25.7521 8.21714 -6.21986 -0.42815 -0.754232 0.287187 15.2761 5.26323 -3.27309 1.4963 7.5744 -1.52136 2.95826 -2.02177 -17.8015 5.47506 -0.905672 0.485692 -54.6836 -0.500924 -50.815 11.3069 -0.201091 0.618544 -8.62937 -17.7005 -47.8199 9.61414 -0.254739 3.48553 2.76433 -22.805 10.8388 -0.176263 -0.07068 1.26622 24.2782 38.4818 -35.502 1.04683 -0.546484 1.82182 -6.53182 -1.24812 -11.4632 0.993472 -0.621916 0.655506 6.45119 2.66719 11.8095 2.64253 0.566363 2.4162 -5.18973 4.48309 12.5249 1.39394 -0.635138 0.899356 -36.9452 6.74319 17.0314 0.622395 -0.856016 0.402182 -38.0065 6.76616 17.5559 3.20814 0.514427 1.52547 -1.48522 -0.683627 1.67106 1.56545 -0.497974 0.68919 -44.4869 8.35706 21.4002 0.679943 -1.17582 0.444246 -9.36101 3.19909 3.9917 3.47877 0.200518 0.597719 -8.0766 -2.63754 5.99023 1.28208 -0.53155 0.44672 -14.781 5.15018 7.29483 0.710288 -0.970167 0.4032 -16.2802 5.553 8.08475 3.42483 -0.278904 -0.240415 11.7678 -11.303 2.60142 1.05787 -0.635999 0.156459 -18.8959 6.82264 9.38286 0.42815 -0.754232 0.287187 -9.18831 3.76106 4.34946 -4.17848 -1.02486 0.046356 -62.8515 -30.1125 -24.8247 1.27155 -17.465 -0.237699 154.502 53.7384 -143.245 0.529163 -17.3815 -1.19582 -6.46558 52.1105 44.6177 -0.711591 -4.4863 4.0596 -12.9132 28.5203 -6.48637 4.17848 -1.02486 0.046356 64.3481 -38.2812 46.405 -1.27155 -17.465 -0.237699 168.886 55.3307 -167.766 -0.529163 -17.3815 -1.19582 14.7866 42.25 -46.3611 0.711591 -4.4863 4.0596 14.1882 56.6403 11.942 
4.90378 14.4485 -18.3727 12.9536 10.3644 -55.0543 -1.77636e-015 5.99393 0.287273 -0.201987 -4.80796 2.51203 1.77636e-015 6.65865 -0.856112 -0.192455 -9.62027 5.03381 -1.77636e-015 8.65624 -1.42685 0.117116 0.208235 -4.33913 0 3.80999 -0.190247 6.84682 -0.335431 -2.31081 -1.4963 7.5744 -1.52136 -6.89542 -1.04642 30.6686 -5.47506 -0.905672 0.485692 37.8033 -28.2333 58.3507 -11.3069 -0.201091 0.618544 18.0896 -1.54395 37.6536 -9.61414 -0.254739 3.48553 -40.7286 -45.9233 -35.7012 0.176263 -0.07068 1.26622 -27.0717 34.1213 37.4742 -1.04683 -0.546484 1.82182 3.31223 -2.9656 9.24489 -0.993472 -0.621916 0.655506 -4.32709 5.93876 -14.9479 -2.64253 0.566363 2.4162 13.4016 5.92008 -12.0724 -1.39394 -0.635138 0.899356 44.7396 8.15935 -10.1718 -0.622395 -0.856016 0.402182 45.8625 8.24908 -10.4911 -3.20814 0.514427 1.52547 7.10271 0.886163 -2.24131 -1.56545 -0.497974 0.68919 52.7411 10.5331 -13.0892 -0.679943 -1.17582 0.444246 15.4525 4.36311 -2.78813 -3.47877 0.200518 0.597719 14.3237 -1.13293 -5.51462 -1.28208 -0.53155 0.44672 21.365 6.41231 -5.10257 -0.710288 -0.970167 0.4032 22.9813 6.80615 -5.57298 -3.42483 -0.278904 -0.240415 -6.90714 -7.98177 -6.36678 -1.05787 -0.635999 0.156459 25.7521 8.21715 -6.21986 -0.42815 -0.754232 0.287187 15.2761 5.26324 -3.27308 1.4963 7.5744 -1.52136 2.95763 -1.99623 -17.8064 5.47506 -0.905672 0.485692 -54.794 -0.287781 -50.4601 11.3069 -0.201091 0.618544 -8.79335 -17.5873 -48.2237 9.61414 -0.254739 3.48553 2.99657 -22.7145 11.0032 -0.176263 -0.07068 1.26622 24.2782 38.4818 -35.502 1.04683 -0.546484 1.82182 -6.53182 -1.24812 -11.4632 0.993472 -0.621916 0.655506 6.45118 2.66718 11.8095 2.64253 0.566363 2.4162 -5.18975 4.48307 12.5249 1.39394 -0.635138 0.899356 -36.9452 6.74318 17.0314 0.622395 -0.856016 0.402182 -38.0065 6.76615 17.5559 3.20814 0.514427 1.52547 -1.48524 -0.68365 1.67107 1.56545 -0.497974 0.68919 -44.4869 8.35705 21.4002 0.679943 -1.17582 0.444246 -9.361 3.1991 3.99169 3.47877 0.200518 0.597719 -8.07662 -2.63755 5.99023 1.28208 -0.53155 0.44672 -14.781 5.15017 7.29483 0.710288 -0.970167 0.4032 -16.2801 5.553 8.08475 3.42483 -0.278904 -0.240415 11.7678 -11.303 2.60142 1.05787 -0.635999 0.156459 -18.8959 6.82264 9.38285 0.42815 -0.754232 0.287187 -9.1883 3.76106 4.34946 -4.17848 -1.02486 0.046356 -62.8984 -30.3216 -25.0911 1.27155 -17.465 -0.237699 154.577 53.6054 -143.205 0.529163 -17.3815 -1.19582 -6.20979 51.7482 43.999 -0.711591 -4.4863 4.0596 -13.2521 28.713 -6.49663 4.17848 -1.02486 0.046356 64.543 -38.6876 46.6092 -1.27155 -17.465 -0.237699 168.951 55.2699 -167.984 -0.529163 -17.3815 -1.19582 14.3862 42.407 -45.9485 0.711591 -4.4863 4.0596 14.1614 56.523 11.7678 
4.89818 14.501 -18.3789 13.1127 10.6269 -54.9506 -1.77636e-015 5.99393 0.287273 -0.160998 -4.98383 2.47086 0 6.65865 -0.856112 -0.105882 -9.96999 4.95596 -1.77636e-015 8.65624 -1.42685 0.0543496 -0.446941 -4.21518 0 3.80999 -0.190247 6.9839 -0.063998 -2.36345 -1.4963 7.5744 -1.52136 -6.82467 -1.03911 30.4113 -5.47506 -0.905672 0.485692 37.9775 -27.8978 58.1305 -11.3069 -0.201091 0.618544 18.0825 -1.16536 38.3104 -9.61414 -0.254739 3.48553 -41.2399 -45.797 -36.24 0.176263 -0.07068 1.26622 -27.0717 34.1213 37.4742 -1.04683 -0.546484 1.82182 3.31224 -2.96561 9.2449 -0.993472 -0.621916 0.655506 -4.32709 5.93876 -14.9479 -2.64253 0.566363 2.4162 13.4015 5.92009 -12.0724 -1.39394 -0.635138 0.899356 44.7396 8.15935 -10.1718 -0.622395 -0.856016 0.402182 45.8625 8.24907 -10.4911 -3.20814 0.514427 1.52547 7.10267 0.886167 -2.24131 -1.56545 -0.497974 0.68919 52.741 10.533 -13.0891 -0.679943 -1.17582 0.444246 15.4525 4.36311 -2.78812 -3.47877 0.200518 0.597719 14.3237 -1.13294 -5.51463 -1.28208 -0.53155 0.44672 21.365 6.4123 -5.10257 -0.710288 -0.970167 0.4032 22.9812 6.80615 -5.57297 -3.42483 -0.278904 -0.240415 -6.9072 -7.98177 -6.36679 -1.05787 -0.635999 0.156459 25.7521 8.21714 -6.21984 -0.42815 -0.754232 0.287187 15.2761 5.26325 -3.27308 1.4963 7.5744 -1.52136 2.9523 -1.96694 -17.7925 5.47506 -0.905672 0.485692 -54.9568 0.0045489 -49.8261 11.3069 -0.201091 0.618544 -9.20637 -17.5238 -49.1774 9.61414 -0.254739 3.48553 3.39081 -22.4009 11.3225 -0.176263 -0.07068 1.26622 24.2782 38.4818 -35.502 1.04683 -0.546484 1.82182 -6.53182 -1.24813 -11.4632 0.993472 -0.621916 0.655506 6.45118 2.66718 11.8094 2.64253 0.566363 2.4162 -5.18972 4.48307 12.5249 1.39394 -0.635138 0.899356 -36.9452 6.74318 17.0314 0.622395 -0.856016 0.402182 -38.0064 6.76617 17.5559 3.20814 0.514427 1.52547 -1.4852 -0.683651 1.67106 1.56545 -0.497974 0.68919 -44.4869 8.35704 21.4002 0.679943 -1.17582 0.444246 -9.36099 3.19908 3.99169 3.47877 0.200518 0.597719 -8.07659 -2.63758 5.99023 1.28208 -0.53155 0.44672 -14.781 5.15016 7.29483 0.710288 -0.970167 0.4032 -16.2801 5.55299 8.08475 3.42483 -0.278904 -0.240415 11.7678 -11.303 2.60141 1.05787 -0.635999 0.156459 -18.8959 6.82263 9.38286 0.42815 -0.754232 0.287187 -9.1883 3.76103 4.34947 -4.17848 -1.02486 0.046356 -62.7422 -30.4855 -25.2825 1.27155 -17.465 -0.237699 154.566 53.578 -143.067 0.529163 -17.3815 -1.19582 -5.59705 51.32 43.1112 -0.711591 -4.4863 4.0596 -13.7569 28.9045 -6.54963 4.17848 -1.02486 0.046356 64.6922 -39.0919 46.7453 -1.27155 -17.465 -0.237699 169.011 55.2675 -168.232 -0.529163 -17.3815 -1.19582 13.8588 42.4186 -45.3556 0.711591 -4.4863 4.0596 14.172 56.283 11.6988 
4.84181 14.5967 -18.3471 13.232 11.0641 -54.7034 0 5.99393 0.287273 -0.049787 -5.172 2.39435 0 6.65865 -0.856112 0.119197 -10.3416 4.81382 0 8.65624 -1.42685 -0.0291057 -1.33357 -4.13923 0 3.80999 -0.190247 7.13317 0.152082 -2.43681 -1.4963 7.5744 -1.52136 -6.56165 -1.04991 29.9693 -5.47506 -0.905672 0.485692 37.8296 -27.4469 57.6896 -11.3069 -0.201091 0.618544 18.1168 -0.488611 39.4771 -9.61414 -0.254739 3.48553 -42.2468 -45.6549 -37.3228 0.176263 -0.07068 1.26622 -27.0717 34.1213 37.4742 -1.04683 -0.546484 1.82182 3.31224 -2.96561 9.24491 -0.993472 -0.621916 0.655506 -4.32709 5.93877 -14.9479 -2.64253 0.566363 2.4162 13.4016 5.92009 -12.0724 -1.39394 -0.635138 0.899356 44.7396 8.15934 -10.1718 -0.622395 -0.856016 0.402182 45.8625 8.24907 -10.4911 -3.20814 0.514427 1.52547 7.1027 0.886161 -2.2413 -1.56545 -0.497974 0.68919 52.7411 10.5331 -13.0892 -0.679943 -1.17582 0.444246 15.4526 4.3631 -2.78812 -3.47877 0.200518 0.597719 14.3237 -1.13293 -5.51462 -1.28208 -0.53155 0.44672 21.365 6.41231 -5.10257 -0.710288 -0.970167 0.4032 22.9813 6.80617 -5.57299 -3.42483 -0.278904 -0.240415 -6.90715 -7.98175 -6.36677 -1.05787 -0.635999 0.156459 25.7521 8.21715 -6.21986 -0.42815 -0.754232 0.287187 15.2761 5.26326 -3.27305 1.4963 7.5744 -1.52136 2.94883 -1.93676 -17.8119 5.47506 -0.905672 0.485692 -55.286 0.340225 -48.8222 11.3069 -0.201091 0.618544 -10.2142 -17.3644 -50.863 9.61414 -0.254739 3.48553 4.18137 -21.6388 11.7481 -0.176263 -0.07068 1.26622 24.2783 38.4819 -35.5021 1.04683 -0.546484 1.82182 -6.53182 -1.24812 -11.4632 0.993472 -0.621916 0.655506 6.45118 2.66718 11.8095 2.64253 0.566363 2.4162 -5.18974 4.48306 12.5249 1.39394 -0.635138 0.899356 -36.9452 6.74318 17.0315 0.622395 -0.856016 0.402182 -38.0065 6.76616 17.5559 3.20814 0.514427 1.52547 -1.48522 -0.683641 1.67107 1.56545 -0.497974 0.68919 -44.4869 8.35703 21.4002 0.679943 -1.17582 0.444246 -9.36102 3.19908 3.9917 3.47877 0.200518 0.597719 -8.07661 -2.63757 5.99023 1.28208 -0.53155 0.44672 -14.7811 5.15016 7.29484 0.710288 -0.970167 0.4032 -16.2802 5.55298 8.08477 3.42483 -0.278904 -0.240415 11.7678 -11.303 2.60142 1.05787 -0.635999 0.156459 -18.896 6.82265 9.38287 0.42815 -0.754232 0.287187 -9.18832 3.76104 4.34949 -4.17848 -1.02486 0.046356 -62.2099 -30.5102 -25.5672 1.27155 -17.465 -0.237699 154.439 53.6823 -142.772 0.529163 -17.3815 -1.19582 -5.07636 50.5802 42.0439 -0.711591 -4.4863 4.0596 -14.0318 28.8052 -6.52528 4.17848 -1.02486 0.046356 64.8099 -39.5253 46.7827 -1.27155 -17.465 -0.237699 169.056 55.4408 -168.523 -0.529163 -17.3815 -1.19582 13.4009 42.3253 -44.7509 0.711591 -4.4863 4.0596 13.9995 55.9483 11.4163 
